<?xml version="1.0" encoding="UTF-8" standalone="no"?><svg xmlns="http://www.w3.org/2000/svg" xmlns:xlink="http://www.w3.org/1999/xlink" clip-rule="evenodd" stroke-miterlimit="10" viewBox="0 0 1024 768"><desc>SVG generated by Keynote</desc><defs></defs><g transform="matrix(1.00, 0.00, -0.00, -1.00, 0.0, 768.0)"><path d="M 0.0 768.0 L 1024.0 768.0 L 1024.0 0.0 L 0.0 0.0 Z M 0.0 768.0 " fill="#000000"></path><text xml:space="preserve" font-family="Avenir-Book,Avenir" font-size="48.0" fill="#FFFFFF" transform="matrix(1.00, 0.00, -0.00, -1.00, 353.8, 672.6)">S</text><text xml:space="preserve" font-family="Avenir-Book,Avenir" font-size="48.0" fill="#FFFFFF" transform="matrix(1.00, 0.00, -0.00, -1.00, 380.5, 672.6)">p</text><text xml:space="preserve" font-family="Avenir-Book,Avenir" font-size="48.0" fill="#FFFFFF" transform="matrix(1.00, 0.00, -0.00, -1.00, 409.8, 672.6)">a</text><text xml:space="preserve" font-family="Avenir-Book,Avenir" font-size="48.0" fill="#FFFFFF" transform="matrix(1.00, 0.00, -0.00, -1.00, 434.7, 672.6)">r</text><text xml:space="preserve" font-family="Avenir-Book,Avenir" font-size="48.0" fill="#FFFFFF" transform="matrix(1.00, 0.00, -0.00, -1.00, 450.6, 672.6)">s</text><text xml:space="preserve" font-family="Avenir-Book,Avenir" font-size="48.0" fill="#FFFFFF" transform="matrix(1.00, 0.00, -0.00, -1.00, 471.1, 672.6)">e</text><text xml:space="preserve" font-family="Avenir-Book,Avenir" font-size="48.0" fill="#FFFFFF" transform="matrix(1.00, 0.00, -0.00, -1.00, 497.8, 672.6)"> </text><text xml:space="preserve" font-family="Avenir-Book,Avenir" font-size="48.0" fill="#FFFFFF" transform="matrix(1.00, 0.00, -0.00, -1.00, 511.1, 672.6)">C</text><text xml:space="preserve" font-family="Avenir-Book,Avenir" font-size="48.0" fill="#FFFFFF" transform="matrix(1.00, 0.00, -0.00, -1.00, 544.9, 672.6)">o</text><text xml:space="preserve" font-family="Avenir-Book,Avenir" font-size="48.0" fill="#FFFFFF" transform="matrix(1.00, 0.00, -0.00, -1.00, 573.4, 672.6)">d</text><text xml:space="preserve" font-family="Avenir-Book,Avenir" font-size="48.0" fill="#FFFFFF" transform="matrix(1.00, 0.00, -0.00, -1.00, 602.7, 672.6)">i</text><text xml:space="preserve" font-family="Avenir-Book,Avenir" font-size="48.0" fill="#FFFFFF" transform="matrix(1.00, 0.00, -0.00, -1.00, 614.2, 672.6)">n</text><text xml:space="preserve" font-family="Avenir-Book,Avenir" font-size="48.0" fill="#FFFFFF" transform="matrix(1.00, 0.00, -0.00, -1.00, 640.9, 672.6)">g</text><image xlink:href="../../BEAC7230-0278-4259-AD8C-635AA7A5EF10/assets/24F00B37159436146F51622901FDFF8B.png" width="314.00" height="235.00" transform="matrix(2.23, 0.00, -0.00, -2.23, 170.0, 613.0)"></image><path d="M 0.0 0.0 L 698.8 0.0 L 698.8 523.0 L 0.0 523.0 Z M 0.0 0.0 " fill="none" stroke="#FFFFFF" stroke-width="9.00" transform="matrix(1.00, 0.00, 0.00, -1.00, 170.0, 613.0)"></path></g></svg>